HIERARCHY
ROOT root
{
	OFFSET 0.000000 0.000000 0.000000
	CHANNELS 6 Xposition Yposition Zposition Zrotation Yrotation Xrotation
	JOINT lhip
	{
		OFFSET 0.058581 -0.082280 -0.017664
		CHANNELS 3 Zrotation Yrotation Xrotation
		JOINT lknee
		{
			OFFSET 0.043451 -0.386469 0.008037
			CHANNELS 3 Zrotation Yrotation Xrotation
			JOINT lankle
			{
				OFFSET -0.014790 -0.426874 -0.037428
				CHANNELS 3 Zrotation Yrotation Xrotation
				JOINT ltoe
				{
					OFFSET 0.041054 -0.060286 0.122042
					CHANNELS 3 Zrotation Yrotation Xrotation
					End Site
					{
						OFFSET 0.000000 0.000000 0.000000
					}
				}
			}
		}
	}
	JOINT rhip
	{
		OFFSET -0.060310 -0.090513 -0.013543
		CHANNELS 3 Zrotation Yrotation Xrotation
		JOINT rknee
		{
			OFFSET -0.043257 -0.383688 -0.004843
			CHANNELS 3 Zrotation Yrotation Xrotation
			JOINT rankle
			{
				OFFSET 0.019056 -0.420046 -0.034562
				CHANNELS 3 Zrotation Yrotation Xrotation
				JOINT rtoe
				{
					OFFSET -0.034840 -0.062106 0.130323
					CHANNELS 3 Zrotation Yrotation Xrotation
					End Site
					{
						OFFSET 0.000000 0.000000 0.000000
					}
				}
			}
		}
	}
	JOINT lowerback
	{
		OFFSET 0.004439 0.124404 -0.038385
		CHANNELS 3 Zrotation Yrotation Xrotation
		JOINT upperback
		{
			OFFSET 0.004488 0.137956 0.026820
			CHANNELS 3 Zrotation Yrotation Xrotation
			JOINT chest
			{
				OFFSET -0.002265 0.056032 0.002855
				CHANNELS 3 Zrotation Yrotation Xrotation
				JOINT lowerneck
				{
					OFFSET -0.013390 0.211636 -0.033468
					CHANNELS 3 Zrotation Yrotation Xrotation
					JOINT upperneck
					{
						OFFSET 0.010113 0.088937 0.050410
						CHANNELS 3 Zrotation Yrotation Xrotation
						End Site
						{
							OFFSET 0.000000 0.000000 0.000000
						}
					}
				}
				JOINT lclavicle
				{
					OFFSET 0.071702 0.114000 -0.018898
					CHANNELS 3 Zrotation Yrotation Xrotation
					JOINT lshoulder
					{
						OFFSET 0.122921 0.045205 -0.019046
						CHANNELS 3 Zrotation Yrotation Xrotation
						JOINT lelbow
						{
							OFFSET 0.255332 -0.015649 -0.022946
							CHANNELS 3 Zrotation Yrotation Xrotation
							JOINT lwrist
							{
								OFFSET 0.265709 0.012698 -0.007375
								CHANNELS 3 Zrotation Yrotation Xrotation
								End Site
								{
									OFFSET 0.000000 0.000000 0.000000
								}
							}
						}
					}
				}
				JOINT rclavicle
				{
					OFFSET -0.082954 0.112472 -0.023707
					CHANNELS 3 Zrotation Yrotation Xrotation
					JOINT rshoulder
					{
						OFFSET -0.113228 0.046853 -0.008472
						CHANNELS 3 Zrotation Yrotation Xrotation
						JOINT relbow
						{
							OFFSET -0.260127 -0.014369 -0.031269
							CHANNELS 3 Zrotation Yrotation Xrotation
							JOINT rwrist
							{
								OFFSET -0.269108 0.006794 -0.006027
								CHANNELS 3 Zrotation Yrotation Xrotation
								End Site
								{
									OFFSET 0.000000 0.000000 0.000000
								}
							}
						}
					}
				}
			}
		}
	}
}
MOTION
Frames: 14
Frame Time: 0.033333
1.906005 0.081421 0.985168 144.635833 3.072214 85.759342 -0.173321 -12.657275 4.552014 -14.008615 -27.454227 45.896830 4.484273 4.629114 -18.316805 0.000000 -0.000000 0.000000 -0.194287 10.435469 -11.813562 4.307033 9.514553 17.281936 1.916236 -4.902767 -8.785958 0.000000 -0.000000 0.000000 8.793038 -1.403064 4.438691 0.131486 3.621035 -2.562921 -3.996832 1.471283 -1.214591 1.196054 9.940447 5.896734 -3.414516 9.491971 11.791051 -30.449068 5.534384 8.762333 -59.546054 1.675353 6.988024 20.933325 -26.235829 -7.137311 10.224036 -16.703146 -19.716175 27.898267 2.410202 9.421296 55.737137 3.715012 9.816191 -17.470598 22.786546 -5.316828 0.594234 12.889906 -14.285338 
1.920727 0.088728 0.986297 145.257387 3.249619 85.113391 0.580916 -11.425433 1.246859 -14.027560 -22.520482 51.398509 2.224545 1.931424 -11.765838 0.000000 -0.000000 0.000000 0.899193 9.818842 -9.731126 4.207629 9.620296 16.870094 0.487865 -4.913630 -9.655469 0.000000 -0.000000 0.000000 10.143210 -1.790676 5.788886 0.098682 3.272440 -3.371716 -3.783907 1.372721 -1.245781 0.095283 9.752940 5.354010 -3.354943 11.519924 12.659003 -30.884506 5.088674 8.332191 -60.313499 2.339790 5.812816 20.861495 -26.554767 -7.170370 8.714324 -17.456945 -19.604322 27.359700 3.317929 9.207661 54.841801 4.269787 9.200801 -16.425045 24.116452 -5.294212 0.936486 13.486140 -13.462232 
1.933268 0.095849 0.986133 146.127570 3.214256 84.755373 1.183180 -10.125787 -2.393783 -13.574495 -18.351949 55.803287 1.327832 1.467375 -9.244642 0.000000 -0.000000 0.000000 1.427717 8.823679 -8.456667 4.410148 9.816212 17.109588 -0.396848 -5.005565 -10.602511 0.000000 -0.000000 0.000000 11.089394 -1.952473 7.045161 0.195868 2.750001 -4.025348 -3.695086 1.223904 -1.319874 -0.835412 9.377202 4.781762 -3.118885 13.240315 13.079545 -31.486122 4.392628 8.051367 -60.231203 2.888535 5.582324 20.173204 -27.278271 -6.407264 8.278699 -17.548369 -19.558369 27.291807 3.911213 8.745952 53.299761 4.823560 8.837389 -15.152049 25.479037 -4.793056 0.964962 13.869095 -12.659995 
1.946676 0.104683 0.985363 147.356613 3.080853 84.631696 1.583487 -8.112229 -7.265614 -11.890177 -13.466290 59.302125 2.934492 3.732835 -12.233145 0.000000 -0.000000 0.000000 1.673731 7.346609 -7.370192 4.717820 9.911745 17.519283 -0.773528 -4.914073 -11.704554 0.000000 -0.000000 0.000000 11.857646 -1.992629 8.039614 0.439313 1.987204 -4.470688 -3.539198 1.078211 -1.111226 -1.455353 9.023486 4.078021 -3.050233 14.618410 13.142501 -32.340710 3.089837 8.192918 -59.463184 3.077303 5.561745 18.834315 -28.594027 -4.012460 7.285661 -18.199112 -19.120230 27.538005 4.715761 8.813141 50.988301 5.974648 8.138735 -13.691636 26.844761 -3.655090 0.200310 14.386605 -12.539860 
1.953888 0.110312 0.985202 148.006750 2.935243 84.611833 1.686657 -6.967132 -10.087015 -10.745571 -10.698124 60.100516 3.922581 5.229478 -13.962553 0.000000 -0.000000 0.000000 1.701649 6.489625 -6.687262 4.777963 9.853305 17.587968 -0.946320 -4.636386 -12.282698 0.000000 -0.000000 0.000000 12.157401 -1.958785 8.327449 0.606855 1.531774 -4.311890 -3.410384 1.103482 -1.033094 -1.753018 8.929678 3.794776 -3.082240 15.048518 12.920042 -32.855656 2.189907 8.353613 -58.799736 3.079463 5.704908 18.082888 -29.505035 -2.187610 5.731628 -19.108091 -18.660968 27.733576 5.285657 9.173102 49.675025 6.798395 7.499097 -13.100559 27.240163 -3.260537 -0.295147 14.608400 -12.944505 
1.963175 0.118313 0.985852 148.883958 2.831830 84.348771 1.876796 -5.477663 -13.093063 -9.557965 -7.871144 59.575955 4.217911 5.876091 -16.027488 0.000000 -0.000000 0.000000 1.877698 5.368596 -5.251429 4.666618 9.714379 17.227252 -1.142119 -4.199619 -12.893661 0.000000 -0.000000 0.000000 12.593580 -1.984552 9.099115 0.758941 0.972377 -4.148912 -3.197743 1.196461 -1.146873 -2.166530 8.871298 3.723049 -3.145618 15.318087 12.453854 -33.350126 1.093039 8.358697 -57.919615 3.238465 5.841381 17.183377 -30.823682 0.079066 3.216318 -20.407200 -17.523072 27.798837 6.093180 9.595402 48.488804 7.594776 6.503696 -12.635333 27.258451 -3.714373 -1.073023 14.692657 -13.837684 
1.972430 0.126698 0.987168 149.911963 2.916561 83.818942 2.231708 -4.127311 -15.175306 -8.558753 -5.835195 57.209154 4.063365 5.549076 -18.266690 0.000000 -0.000000 0.000000 2.190946 4.135500 -3.156817 4.523395 9.558502 16.235453 -1.212836 -3.728009 -13.334494 0.000000 -0.000000 0.000000 13.173320 -2.060608 10.391896 0.804719 0.490976 -4.320596 -2.957907 1.258423 -1.360116 -2.534402 8.896791 3.820407 -3.165118 15.424558 12.159375 -33.485213 0.223556 8.147295 -57.238930 3.534915 5.902868 16.398449 -32.342853 1.787604 1.191314 -21.410288 -16.464032 27.533041 6.769946 9.647302 48.111476 7.892891 5.572773 -12.328770 26.930313 -5.111066 -2.148067 14.533361 -15.206991 
1.983913 0.134068 0.988270 150.319320 3.609965 83.504504 3.939084 -2.638628 -17.063614 -7.485670 -3.133922 53.467161 3.997794 5.383180 -20.269759 0.000000 -0.000000 0.000000 3.478545 3.683718 -1.073815 4.296164 9.690876 14.888071 -1.521030 -3.875812 -13.511261 0.000000 -0.000000 0.000000 13.596161 -2.026125 11.416631 1.093074 0.434838 -4.226164 -2.395214 1.541305 -1.830017 -2.779805 8.876447 3.951544 -3.023213 15.536787 12.227678 -33.510361 -0.263237 7.741832 -56.684777 3.997006 5.609882 15.979533 -34.076760 2.367803 -1.476557 -22.426909 -15.173770 27.423490 7.318573 9.656068 47.955069 7.813909 4.658311 -12.040296 26.516189 -7.094626 -2.995840 14.346573 -16.892179 
1.992232 0.143368 0.988437 151.293067 4.013105 83.526872 4.668535 -1.911084 -19.021180 -6.114529 -0.599074 48.731629 4.466187 7.046423 -21.482315 0.000000 -0.000000 0.000000 3.827976 2.073243 0.408684 4.493980 10.107927 14.013784 -1.255553 -3.657350 -13.935243 0.000000 -0.000000 0.000000 14.198553 -2.040319 12.087115 1.131067 0.247794 -4.709434 -2.038576 1.723314 -1.632487 -3.256106 8.476571 3.517282 -2.557288 15.819069 12.743036 -33.626570 -0.524153 7.295040 -56.137062 4.230387 5.480905 15.333960 -35.914302 3.101329 -1.068146 -22.526865 -15.461918 27.298113 7.513228 9.619939 47.751649 7.733122 3.758056 -11.511979 26.264724 -8.507067 -4.480573 14.020062 -18.855334 
2.002216 0.157105 0.986144 152.637996 4.574966 84.259025 5.306965 -0.813887 -21.676292 -4.308485 2.319771 41.920864 5.083393 9.462237 -21.843859 0.000000 -0.000000 0.000000 4.179588 0.277493 1.211302 4.814563 10.338957 13.586974 -0.832065 -3.475276 -14.643760 0.000000 -0.000000 0.000000 14.709883 -1.828529 11.974459 1.412023 0.098953 -5.351052 -1.640349 1.856961 -1.139746 -3.611144 8.024626 2.901392 -1.876940 15.992024 13.370966 -33.541559 -0.352856 7.086783 -55.988387 3.956621 5.548575 14.740033 -37.959250 4.099380 2.155917 -21.763675 -17.143034 27.178210 7.212434 9.927360 47.747422 7.831683 2.983877 -11.263993 26.143328 -9.309220 -6.045590 13.713945 -21.348457 
2.009980 0.169161 0.983127 153.733955 4.998432 85.126297 5.566071 0.285681 -23.629384 -2.947553 4.359684 36.282578 5.765275 10.447958 -21.393968 0.000000 -0.000000 0.000000 4.504135 -0.718042 1.229173 5.085223 10.290529 13.928810 -0.694975 -3.458856 -15.464124 0.000000 -0.000000 0.000000 14.724875 -1.503891 11.450822 1.787866 0.022560 -5.504778 -1.351163 1.918520 -0.975776 -3.515304 7.974040 2.421069 -1.493855 15.859591 13.679665 -33.352236 0.062615 6.991573 -56.079612 3.488713 5.612454 14.511644 -39.175203 4.522991 4.093232 -21.273354 -18.258039 27.359235 6.719680 10.271558 47.892140 8.025936 2.609909 -11.517719 25.807831 -9.976153 -6.647389 13.685335 -22.311670 
2.017220 0.182211 0.979723 154.890733 5.283260 85.863468 5.350224 1.629499 -25.034905 -1.751474 5.943897 30.691645 6.479225 10.996870 -20.811751 0.000000 -0.000000 0.000000 4.761748 -1.634706 1.207529 5.266587 10.229726 14.650411 -0.777822 -3.572011 -16.584808 0.000000 -0.000000 0.000000 14.415755 -1.133525 11.112689 2.085166 -0.101423 -5.634449 -1.096004 1.932877 -0.849614 -3.229886 8.138109 1.806559 -1.151801 15.640208 13.807100 -33.084477 0.448140 6.894479 -56.218298 2.968110 5.589635 14.367038 -39.912443 4.746139 6.158731 -20.555592 -19.055331 27.665628 6.254274 10.521623 48.324795 8.256844 2.414279 -11.947013 25.099361 -10.711432 -7.292157 13.623371 -22.360009 
2.024162 0.196175 0.976017 156.068578 5.533873 86.538000 5.008402 2.811368 -26.032596 -0.994168 6.908244 25.460054 7.275563 11.321151 -20.537064 0.000000 -0.000000 0.000000 5.015704 -2.482954 1.357764 5.312708 9.985631 15.263698 -1.033526 -3.658743 -17.774572 0.000000 -0.000000 0.000000 13.863824 -0.615019 10.672799 2.386020 -0.307750 -5.556407 -0.828061 1.933872 -0.672281 -2.854587 8.638856 1.078344 -0.972762 15.242002 13.717516 -32.779250 0.552034 6.959962 -56.581499 2.280324 5.556982 14.636647 -39.837492 4.495953 8.107962 -19.765700 -19.692418 27.795950 5.890845 10.790212 49.182102 8.540927 2.397221 -12.660328 24.099631 -11.228889 -7.522605 13.533118 -21.992438 
2.030857 0.211459 0.972442 157.113525 5.681229 87.272484 4.662881 3.620484 -26.736855 -0.557637 7.323155 20.875725 7.768324 11.335549 -20.102573 0.000000 -0.000000 0.000000 5.210059 -3.091570 1.539226 5.261233 9.665913 15.834147 -1.224056 -3.750862 -18.906091 0.000000 -0.000000 0.000000 13.153115 -0.088565 10.156455 2.541240 -0.543173 -5.472074 -0.712262 1.998046 -0.685958 -2.436010 9.410611 0.447517 -0.664165 14.907627 13.687314 -32.337224 0.575830 7.008638 -56.968285 1.906987 5.475026 14.940156 -39.094136 4.053881 9.655298 -19.032951 -20.099339 27.983439 5.749635 11.219583 50.341073 8.571847 2.483843 -13.475029 22.919771 -11.442891 -7.021375 13.548936 -21.125336 
